<?xml version="1.0" standalone="no"?>
<!DOCTYPE svg PUBLIC "-//W3C//DTD SVG 20010904//EN"
 "http://www.w3.org/TR/2001/REC-SVG-20010904/DTD/svg10.dtd">
<svg version="1.0" xmlns="http://www.w3.org/2000/svg"
 width="500.000000pt" height="500.000000pt" viewBox="0 0 500.000000 500.000000"
 preserveAspectRatio="xMidYMid meet">
<metadata>
Created by potrace 1.10, written by Peter Selinger 2001-2011
</metadata>
<g transform="translate(0.000000,500.000000) scale(0.100000,-0.100000)"
fill="#5cffab" stroke="none">
<path d="M835 2776 c-67 -21 -100 -43 -151 -99 -59 -64 -79 -124 -77 -222 2
-86 19 -133 69 -196 109 -138 327 -159 462 -44 46 40 86 100 77 115 -3 5 -36
10 -73 10 -63 0 -69 2 -84 28 l-17 27 -1 -28 c0 -35 -47 -83 -90 -92 -66 -14
-131 25 -144 86 -8 42 3 82 20 75 8 -3 21 -9 29 -12 10 -4 18 3 25 20 5 15 25
34 46 43 35 17 37 17 77 -6 93 -52 103 -56 157 -55 30 0 66 6 79 13 21 11 23
18 18 58 -8 72 -64 170 -124 219 -82 67 -200 91 -298 60z m333 -218 c5 -39
-30 -56 -58 -28 -28 28 -11 63 28 58 21 -2 28 -9 30 -30z"/>
<path d="M2096 2738 c-13 -19 -14 -25 -2 -43 21 -31 68 -27 80 7 18 52 -46 82
-78 36z"/>
<path d="M2602 2515 c3 -253 4 -254 56 -255 21 0 22 3 22 110 0 121 13 170 50
190 27 14 64 6 90 -20 17 -17 20 -34 20 -128 0 -119 12 -152 56 -152 l24 0 0
138 c0 118 -3 141 -20 169 -37 61 -125 82 -180 43 -15 -11 -30 -17 -34 -13 -3
3 -6 34 -6 68 0 68 -10 85 -53 85 l-28 0 3 -235z"/>
<path d="M1790 2710 c-19 -19 -20 -33 -20 -216 0 -115 4 -203 10 -215 7 -12
21 -19 40 -19 l29 0 3 103 3 102 80 5 c73 5 80 7 83 27 3 21 -1 22 -80 25
l-83 3 -3 68 -3 67 89 0 c94 0 112 8 112 47 0 23 -1 23 -120 23 -107 0 -122
-2 -140 -20z"/>
<path d="M1484 2611 c-93 -57 -121 -189 -59 -283 39 -58 109 -86 189 -74 47 7
86 37 86 65 0 17 -3 18 -37 5 -49 -17 -86 -17 -126 -1 -37 16 -54 34 -59 62
-3 18 4 20 89 26 120 7 143 21 143 88 0 54 -23 91 -70 116 -41 21 -118 19
-156 -4z m134 -57 c14 -9 22 -26 22 -43 0 -36 -32 -51 -112 -51 l-60 0 6 33
c12 65 91 99 144 61z"/>
<path d="M2334 2611 c-44 -27 -64 -59 -64 -102 0 -41 31 -75 79 -85 90 -19
106 -28 106 -59 0 -39 -34 -57 -95 -49 -25 4 -53 11 -62 16 -15 7 -18 4 -18
-15 0 -65 155 -88 224 -34 33 26 46 94 26 132 -14 26 -62 50 -129 64 -58 13
-72 32 -47 67 11 15 26 19 68 19 29 0 65 -3 81 -8 23 -6 27 -4 27 12 0 11 -12
29 -26 40 -36 28 -126 29 -170 2z"/>
<path d="M3074 2611 c-43 -26 -72 -66 -89 -124 -39 -133 71 -252 216 -232 49
7 72 24 84 63 6 22 5 23 -17 11 -12 -7 -51 -13 -86 -13 -60 -1 -65 1 -93 32
-17 19 -28 39 -26 45 2 7 37 14 88 18 121 8 148 24 149 87 0 45 -24 89 -63
112 -42 26 -121 26 -163 1z m137 -62 c47 -47 3 -89 -93 -89 -63 0 -66 4 -47
57 18 53 100 72 140 32z"/>
<path d="M3433 2615 c-60 -26 -73 -63 -73 -205 0 -134 5 -150 47 -150 23 0 23
2 23 103 0 162 21 204 96 195 28 -3 34 -1 34 14 0 27 -36 58 -67 58 -16 -1
-43 -7 -60 -15z"/>
<path d="M3596 2588 c8 -46 85 -248 110 -286 13 -20 14 -29 3 -53 -14 -35 -36
-49 -78 -49 -24 0 -31 -4 -31 -20 0 -11 11 -27 25 -36 35 -23 78 -10 117 36
51 59 168 345 168 409 0 21 -33 45 -52 39 -6 -2 -22 -42 -34 -89 -28 -107 -49
-162 -62 -167 -20 -6 -51 69 -82 194 -7 28 -18 44 -35 52 -48 22 -56 17 -49
-30z"/>
<path d="M2100 2460 c0 -148 1 -151 25 -176 21 -21 33 -25 73 -22 40 3 47 6
50 26 3 18 -2 23 -28 28 -17 4 -35 15 -40 25 -6 10 -10 69 -10 131 0 121 -6
138 -47 138 -23 0 -23 0 -23 -150z"/>
</g>
</svg>
